HIERARCHY
ROOT joint_0
{
	OFFSET 0.000000 0.000000 0.000000
	CHANNELS 6 Xposition Yposition Zposition Zrotation Yrotation Xrotation 
	JOINT joint_1
	{
		OFFSET 0.587158 0.057678 95.682007
		CHANNELS 3 Zrotation Yrotation Xrotation
		JOINT joint_2
		{
			OFFSET -7.116699 -0.219910 87.157959
			CHANNELS 3 Zrotation Yrotation Xrotation
			JOINT joint_3
			{
				OFFSET -5.892822 -0.290222 87.151001
				CHANNELS 3 Zrotation Yrotation Xrotation
				JOINT joint_4
				{
					OFFSET 5.544678 -0.099609 123.768066
					CHANNELS 3 Zrotation Yrotation Xrotation
					JOINT joint_5
					{
						OFFSET 41.981201 4.519775 84.257935
						CHANNELS 3 Zrotation Yrotation Xrotation
						End Site
						{
							OFFSET 0.000000 0.000000 0.000000
						}
					}
				}
				JOINT joint_6
				{
					OFFSET 3.940918 -26.976501 69.308105
					CHANNELS 3 Zrotation Yrotation Xrotation
					JOINT joint_7
					{
						OFFSET 4.776123 -152.592468 -16.842041
						CHANNELS 3 Zrotation Yrotation Xrotation
						JOINT joint_8
						{
							OFFSET 54.421875 -30.424072 -248.864014
							CHANNELS 3 Zrotation Yrotation Xrotation
							JOINT joint_9
							{
								OFFSET 42.120117 -33.387878 -236.524963
								CHANNELS 3 Zrotation Yrotation Xrotation
								End Site
								{
									OFFSET 0.000000 0.000000 0.000000
								}
							}
						}
					}
				}
				JOINT joint_10
				{
					OFFSET 2.312012 26.904114 69.425049
					CHANNELS 3 Zrotation Yrotation Xrotation
					JOINT joint_11
					{
						OFFSET 0.971436 152.197815 -20.626953
						CHANNELS 3 Zrotation Yrotation Xrotation
						JOINT joint_12
						{
							OFFSET 49.954102 28.991455 -249.970093
							CHANNELS 3 Zrotation Yrotation Xrotation
							JOINT joint_13
							{
								OFFSET 48.146973 19.598389 -236.919922
								CHANNELS 3 Zrotation Yrotation Xrotation
								End Site
								{
									OFFSET 0.000000 0.000000 0.000000
								}
							}
						}
					}
				}
			}
		}
	}
	JOINT joint_14
	{
		OFFSET 16.305664 -89.442932 -108.224976
		CHANNELS 3 Zrotation Yrotation Xrotation
		JOINT joint_15
		{
			OFFSET -22.282471 13.437134 -412.904968
			CHANNELS 3 Zrotation Yrotation Xrotation
			JOINT joint_16
			{
				OFFSET -45.426025 14.484802 -445.892029
				CHANNELS 3 Zrotation Yrotation Xrotation
				JOINT joint_17
				{
					OFFSET 173.389404 -9.944031 -76.473001
					CHANNELS 3 Zrotation Yrotation Xrotation
					End Site
					{
						OFFSET 0.000000 0.000000 0.000000
					}
				}
			}
		}
	}
	JOINT joint_18
	{
		OFFSET 13.392822 89.408875 -108.653992
		CHANNELS 3 Zrotation Yrotation Xrotation
		JOINT joint_19
		{
			OFFSET -29.032959 24.483521 -411.977966
			CHANNELS 3 Zrotation Yrotation Xrotation
			JOINT joint_20
			{
				OFFSET -30.530029 28.986328 -446.453018
				CHANNELS 3 Zrotation Yrotation Xrotation
				JOINT joint_21
				{
					OFFSET 170.330078 33.400757 -76.698997
					CHANNELS 3 Zrotation Yrotation Xrotation
					End Site
					{
						OFFSET 0.000000 0.000000 0.000000
					}
				}
			}
		}
	}
}
MOTION
Frames: 17
Frame Time: 0.016667
-2799.320068 908.139465 1065.109985 1.831388 14.195862 1.560251 -0.241524 -6.316582 1.191276 -0.355133 0.931112 -0.244619 -0.320991 -1.254455 0.236637 -4.735664 -11.277582 10.238102 0.000000 0.000000 0.000000 -2.535720 10.062070 -1.016469 3.992885 9.033924 -7.757419 -174.127706 -80.770201 149.710131 0.000000 0.000000 0.000000 4.426727 10.348164 4.251154 1.571544 7.585088 4.942160 -1.769370 -83.646780 20.273810 0.000000 0.000000 0.000000 -12.836631 -11.395685 -1.563268 -12.903646 2.406375 -1.636591 -12.822161 0.171805 -5.460924 0.000000 0.000000 0.000000 14.192686 -13.536643 -1.443712 15.620981 -0.472341 -0.011961 15.838151 7.779620 5.454321 0.000000 0.000000 0.000000 
-2798.006592 907.998047 1065.447021 1.848084 14.148324 1.657646 -0.241925 -6.094258 1.224252 -0.356701 0.934194 -0.232140 -0.320907 -1.232492 0.224384 -4.767016 -11.223267 10.251843 0.000000 0.000000 0.000000 -2.462884 10.562325 -1.134832 3.494929 9.295269 -9.347379 -174.153149 -73.693161 150.400092 0.000000 0.000000 0.000000 4.297365 10.410842 4.296638 2.674717 7.083959 6.313999 -1.438095 -88.750128 19.653713 0.000000 0.000000 0.000000 -12.821120 -11.380502 -1.652999 -12.885395 2.547119 -1.739475 -12.832801 0.225638 -5.458773 0.000000 0.000000 0.000000 14.112371 -13.612994 -1.509346 15.566316 -0.083035 0.180189 15.803122 7.902479 5.406879 0.000000 0.000000 0.000000 
-2796.758057 907.860413 1065.765015 1.813227 14.101514 1.741092 -0.247380 -5.867730 1.271553 -0.364347 0.927493 -0.230185 -0.325000 -1.199720 0.219850 -4.788699 -11.172193 10.261239 0.000000 0.000000 0.000000 -2.409495 10.775211 -1.196804 2.767543 9.294160 -11.070163 -174.213349 -67.618450 151.634589 0.000000 0.000000 0.000000 4.156310 10.338155 4.306643 3.943886 6.421555 7.669778 178.937238 -86.750640 -161.310524 0.000000 0.000000 0.000000 -12.795046 -11.370123 -1.731998 -12.857005 2.680715 -1.840271 -12.833198 0.284767 -5.452121 0.000000 0.000000 0.000000 14.051672 -13.672180 -1.564848 15.528949 0.277908 0.356439 15.787874 8.028978 5.367807 0.000000 0.000000 0.000000 
-2795.561035 907.732056 1066.061035 1.710589 14.064205 1.803545 -0.263584 -5.639149 1.342202 -0.384194 0.900793 -0.244813 -0.338737 -1.148505 0.226921 -4.797856 -11.122251 10.264412 0.000000 0.000000 0.000000 -2.394993 10.559663 -1.147804 1.833583 8.954983 -12.988945 -174.265822 -62.768351 153.285484 0.000000 0.000000 0.000000 4.030220 10.124360 4.292432 5.351540 5.622817 8.943493 179.350546 -82.807043 -162.613585 0.000000 0.000000 0.000000 -12.758047 -11.371412 -1.795905 -12.818556 2.803387 -1.929624 -12.821394 0.350104 -5.440271 0.000000 0.000000 0.000000 14.024180 -13.696779 -1.599274 15.519192 0.566562 0.487339 15.799910 8.172587 5.338673 0.000000 0.000000 0.000000 
-2794.427979 907.606445 1066.337036 1.557300 14.027504 1.852663 -0.285747 -5.406092 1.424202 -0.410095 0.865298 -0.267041 -0.357056 -1.086990 0.240571 -4.796371 -11.074336 10.260747 0.000000 0.000000 0.000000 -2.401213 9.998924 -1.026998 0.704267 8.355399 -15.013979 -174.323575 -58.859734 155.357366 0.000000 0.000000 0.000000 3.892282 9.777058 4.239126 6.890780 4.711196 10.173435 179.808440 -79.317324 -164.223707 0.000000 0.000000 0.000000 -12.711364 -11.376890 -1.849450 -12.770253 2.918167 -2.016984 -12.799344 0.419988 -5.424028 0.000000 0.000000 0.000000 14.017116 -13.704019 -1.623884 15.526858 0.827256 0.602763 15.829646 8.318093 5.317327 0.000000 0.000000 0.000000 
-2793.379150 907.452026 1066.592041 1.351764 13.992399 1.891298 -0.300815 -5.161521 1.516172 -0.428323 0.822243 -0.293567 -0.366955 -1.026667 0.257114 -4.788930 -11.027397 10.258444 0.000000 0.000000 0.000000 -2.457268 9.147106 -0.969874 -0.470381 7.572178 -16.793625 -174.291735 -55.795714 157.916574 0.000000 0.000000 0.000000 3.745257 9.351638 4.192489 8.386646 3.775884 11.219252 -179.746583 -76.400018 -165.877058 0.000000 0.000000 0.000000 -12.648027 -11.394178 -1.901129 -12.705371 3.040612 -2.096948 -12.761054 0.478154 -5.401781 0.000000 0.000000 0.000000 14.026818 -13.706351 -1.634598 15.552393 1.088573 0.699384 15.873316 8.431426 5.308227 0.000000 0.000000 0.000000 
-2792.473145 907.230713 1066.818970 1.085092 13.955395 1.919479 -0.301650 -4.883481 1.616773 -0.431148 0.768156 -0.320784 -0.361278 -0.967916 0.273721 -4.774518 -10.982805 10.254493 0.000000 0.000000 0.000000 -2.565939 8.010597 -1.041897 -1.702817 6.627528 -18.169432 -174.134916 -53.499681 161.193271 0.000000 0.000000 0.000000 3.571176 8.857502 4.187237 9.789279 2.882158 12.003690 -179.328070 -74.025239 -167.533878 0.000000 0.000000 0.000000 -12.563889 -11.429660 -1.949902 -12.619030 3.183881 -2.172865 -12.703598 0.512060 -5.373073 0.000000 0.000000 0.000000 14.051749 -13.709340 -1.617024 15.598387 1.375026 0.760345 15.928130 8.482188 5.315905 0.000000 0.000000 0.000000 
-2791.649170 906.980591 1067.025024 0.766361 13.920421 1.937336 -0.295486 -4.595774 1.725306 -0.426128 0.708240 -0.350071 -0.347464 -0.909420 0.292111 -4.754097 -10.939029 10.250098 0.000000 0.000000 0.000000 -2.715926 6.573617 -1.164681 -3.032452 5.498167 -19.244135 -173.891346 -51.909042 165.103786 0.000000 0.000000 0.000000 3.384832 8.326356 4.192253 11.131337 2.052148 12.588677 -178.930411 -72.035114 -169.252817 0.000000 0.000000 0.000000 -12.463314 -11.477209 -1.996575 -12.516009 3.334532 -2.241426 -12.629691 0.534370 -5.338296 0.000000 0.000000 0.000000 14.093967 -13.707274 -1.585437 15.662025 1.661949 0.801749 15.996363 8.500728 5.335567 0.000000 0.000000 0.000000 
-2790.749023 906.784119 1067.227051 0.425204 13.897526 1.947448 -0.293625 -4.359545 1.844270 -0.425476 0.660386 -0.384848 -0.337577 -0.863095 0.315216 -4.733005 -10.887914 10.253406 0.000000 0.000000 0.000000 -2.907368 4.906268 -1.281437 -4.342563 4.240049 -20.022343 -173.578369 -50.919077 169.273638 0.000000 0.000000 0.000000 3.239919 7.889720 4.183124 12.339824 1.338427 13.004490 -178.598805 -70.352472 -170.890145 0.000000 0.000000 0.000000 -12.353363 -11.522409 -2.051459 -12.405117 3.468000 -2.287723 -12.542742 0.564791 -5.297630 0.000000 0.000000 0.000000 14.151651 -13.697077 -1.577638 15.732613 1.909194 0.872748 16.078982 8.541065 5.356883 0.000000 0.000000 0.000000 
-2789.711182 906.720337 1067.447021 0.054280 13.894298 1.946728 -0.303160 -4.208196 1.987052 -0.436571 0.638552 -0.422673 -0.339843 -0.835571 0.340162 -4.709005 -10.823378 10.253399 0.000000 0.000000 0.000000 -3.166279 2.915073 -1.352857 -5.726601 2.785168 -20.484037 -173.192241 -50.606524 174.043491 0.000000 0.000000 0.000000 3.161634 7.671508 4.158255 13.364059 0.811228 13.203973 -178.364856 -68.894260 -172.396892 0.000000 0.000000 0.000000 -12.231790 -11.560604 -2.122761 -12.285771 3.565595 -2.297052 -12.437347 0.618686 -5.247969 0.000000 0.000000 0.000000 14.232113 -13.678984 -1.621486 15.811814 2.095072 1.011136 16.184864 8.629888 5.378268 0.000000 0.000000 0.000000 
-2788.597168 906.710205 1067.662964 -0.339048 13.903382 1.937939 -0.317976 -4.109052 2.141642 -0.452628 0.630309 -0.457380 -0.348213 -0.820279 0.363258 -4.685131 -10.750183 10.246272 0.000000 0.000000 0.000000 -3.457637 0.714791 -1.377091 -7.221114 1.198595 -20.585621 -172.778205 -50.757598 179.312858 0.000000 0.000000 0.000000 3.124729 7.597030 4.120792 14.225322 0.447952 13.229358 -178.212289 -67.651666 -173.808983 0.000000 0.000000 0.000000 -12.100791 -11.597403 -2.202593 -12.158599 3.646438 -2.283781 -12.318503 0.680441 -5.192291 0.000000 0.000000 0.000000 14.328096 -13.654232 -1.689613 15.898179 2.242379 1.180248 16.304848 8.740298 5.401181 0.000000 0.000000 0.000000 
-2787.427734 906.599915 1067.822998 -0.704850 13.915324 1.931867 -0.328177 -4.037413 2.274189 -0.462952 0.623653 -0.485950 -0.352242 -0.805934 0.381466 -4.676127 -10.680504 10.255736 0.000000 0.000000 0.000000 -3.696575 -1.207709 -1.378674 -8.445560 -0.147184 -20.370489 -172.380116 -50.855077 -176.242116 0.000000 0.000000 0.000000 3.106412 7.497932 4.069188 14.944305 0.155802 13.222814 -178.113154 -66.691867 -175.084937 0.000000 0.000000 0.000000 -11.973453 -11.635820 -2.275853 -12.033751 3.740783 -2.276598 -12.204502 0.725292 -5.139514 0.000000 0.000000 0.000000 14.417125 -13.622288 -1.737068 15.978134 2.375673 1.315689 16.413538 8.843080 5.420826 0.000000 0.000000 0.000000 
-2786.166016 906.276611 1067.899048 -1.032458 13.931161 1.935438 -0.324254 -4.001906 2.353873 -0.455794 0.616371 -0.500357 -0.341687 -0.791735 0.389484 -4.692952 -10.610559 10.299616 0.000000 0.000000 0.000000 -3.822271 -2.499032 -1.368170 -9.091026 -0.996416 -19.934968 -171.982181 -50.671061 -173.366994 0.000000 0.000000 0.000000 3.100490 7.281745 3.988056 15.527902 -0.088209 13.257612 -178.072357 -66.069404 -176.350160 0.000000 0.000000 0.000000 -11.849204 -11.679074 -2.337527 -11.909604 3.858891 -2.288127 -12.097161 0.744484 -5.090768 0.000000 0.000000 0.000000 14.493869 -13.571852 -1.740196 16.048210 2.487777 1.375920 16.500385 8.935193 5.433685 0.000000 0.000000 0.000000 
-2784.848877 905.852173 1067.921021 -1.332222 13.950185 1.941890 -0.315762 -3.997134 2.411943 -0.442999 0.613493 -0.508972 -0.327354 -0.779938 0.394137 -4.724353 -10.542664 10.360735 0.000000 0.000000 0.000000 -3.884820 -3.335729 -1.344761 -9.250654 -1.484327 -19.374827 -171.554895 -50.421525 -171.601543 0.000000 0.000000 0.000000 3.112513 7.045922 3.885555 15.944676 -0.239825 13.269666 -178.077488 -65.710838 -177.476314 0.000000 0.000000 0.000000 -11.728497 -11.723934 -2.392508 -11.787666 3.990318 -2.306234 -11.994726 0.748072 -5.044865 0.000000 0.000000 0.000000 14.563819 -13.514021 -1.723692 16.111926 2.585069 1.403892 16.575423 9.019903 5.443080 0.000000 0.000000 0.000000 
-2783.612549 905.510010 1067.916992 -1.589366 13.959156 1.941393 -0.323934 -3.972322 2.502192 -0.450803 0.614606 -0.526100 -0.333053 -0.773222 0.404542 -4.753539 -10.488469 10.419228 0.000000 0.000000 0.000000 -3.955486 -3.969610 -1.335887 -9.022144 -1.781244 -18.782629 -171.109272 -50.299649 -170.654484 0.000000 0.000000 0.000000 3.149135 6.905044 3.803407 16.160045 -0.288274 13.188544 -178.066417 -65.495834 -178.035552 0.000000 0.000000 0.000000 -11.623836 -11.763540 -2.440317 -11.680334 4.135748 -2.323913 -11.908294 0.736509 -5.006622 0.000000 0.000000 0.000000 14.621554 -13.479004 -1.714299 16.166369 2.711329 1.461539 16.644296 9.077365 5.454580 0.000000 0.000000 0.000000 
-2782.508545 905.352417 1067.854004 -1.779841 13.946691 1.923069 -0.362509 -3.908569 2.668483 -0.497501 0.619953 -0.566752 -0.374646 -0.773130 0.432728 -4.770415 -10.464401 10.463251 0.000000 0.000000 0.000000 -4.065804 -4.390514 -1.376526 -8.200211 -1.862506 -18.159291 -170.626884 -50.318290 -170.847220 0.000000 0.000000 0.000000 3.224266 6.921116 3.744299 16.066022 -0.197102 12.944114 -178.019047 -65.418410 -177.641631 0.000000 0.000000 0.000000 -11.546011 -11.789177 -2.476849 -11.597462 4.307735 -2.334499 -11.848175 0.690502 -4.981512 0.000000 0.000000 0.000000 14.657606 -13.494660 -1.720366 16.206312 2.913382 1.591726 16.707002 9.072797 5.473958 0.000000 0.000000 0.000000 
-2781.484375 905.278259 1067.766968 -1.927636 13.923715 1.897542 -0.417308 -3.824490 2.869163 -0.565241 0.628496 -0.618897 -0.436137 -0.775710 0.468988 -4.784117 -10.455790 10.502295 0.000000 0.000000 0.000000 -4.181549 -4.600102 -1.428268 -6.912475 -1.748545 -17.551340 -170.103186 -50.409070 -171.948254 0.000000 0.000000 0.000000 3.322577 7.033910 3.701854 15.763134 -0.004283 12.605228 -177.956461 -65.472150 -176.672710 0.000000 0.000000 0.000000 -11.484253 -11.808971 -2.505667 -11.529236 4.493451 -2.344733 -11.804339 0.630958 -4.964054 0.000000 0.000000 0.000000 14.681523 -13.533234 -1.732897 16.236940 3.144347 1.751934 16.764934 9.042545 5.495712 0.000000 0.000000 0.000000 
